{
  "accessors": [
    {
      "bufferView": 2,
      "componentType": 5126,
      "count": 4884,
      "max": [
        97.57830810546875,
        100.0,
        60.66376495361328
      ],
      "min": [
        -97.57830810546875,
        0.0,
        -60.66376495361328
      ],
      "type": "VEC3"
    },
    {
      "bufferView": 2,
      "byteOffset": 58608,
      "componentType": 5126,
      "count": 4884,
      "max": [
        0.9998514652252197,
        1.0,
        1.0
      ],
      "min": [
        -0.9998447895050049,
        -1.0,
        -1.0
      ],
      "type": "VEC3"
    },
    {
      "bufferView": 3,
      "componentType": 5126,
      "count": 4884,
      "max": [
        0.9999760985374451,
        0.9997919797897339,
        1.0,
        1.0
      ],
      "min": [
        -0.9999470114707947,
        -0.9819852113723755,
        -0.9999852180480957,
        1.0
      ],
      "type": "VEC4"
    },
    {
      "bufferView": 1,
      "componentType": 5126,
      "count": 4884,
      "max": [
        0.9980469942092896,
        0.975134015083313
      ],
      "min": [
        0.0019529999699443579,
        0.0019529999699443579
      ],
      "type": "VEC2"
    },
    {
      "bufferView": 0,
      "componentType": 5125,
      "count": 26652,
      "type": "SCALAR"
    }
  ],
  "asset": {
    "extras": {
      "author": "hackmans (https://sketchfab.com/hackmans)",
      "license": "CC-BY-4.0 (http://creativecommons.org/licenses/by/4.0/)",
      "source": "https://sketchfab.com/3d-models/utah-teapot-pbr-185b612a223d4dd5b03e55376429574f",
      "title": "Utah Teapot PBR"
    },
    "generator": "Sketchfab-12.71.0",
    "version": "2.0"
  },
  "bufferViews": [
    {
      "buffer": 0,
      "byteLength": 106608,
      "name": "floatBufferViews",
      "target": 34963
    },
    {
      "buffer": 0,
      "byteLength": 39072,
      "byteOffset": 106608,
      "byteStride": 8,
      "name": "floatBufferViews",
      "target": 34962
    },
    {
      "buffer": 0,
      "byteLength": 117216,
      "byteOffset": 145680,
      "byteStride": 12,
      "name": "floatBufferViews",
      "target": 34962
    },
    {
      "buffer": 0,
      "byteLength": 78144,
      "byteOffset": 262896,
      "byteStride": 16,
      "name": "floatBufferViews",
      "target": 34962
    }
  ],
  "buffers": [
    {
      "byteLength": 341040,
      "uri": "scene.bin"
    }
  ],
  "images": [
    {
      "uri": "textures/UtahTeapot_baseColor.png"
    },
    {
      "uri": "textures/UtahTeapot_metallicRoughness.png"
    },
    {
      "uri": "textures/UtahTeapot_emissive.jpeg"
    },
    {
      "uri": "textures/UtahTeapot_normal.png"
    }
  ],
  "materials": [
    {
      "alphaMode": "BLEND",
      "doubleSided": true,
      "emissiveFactor": [
        1.0,
        1.0,
        1.0
      ],
      "emissiveTexture": {
        "index": 2
      },
      "name": "UtahTeapot",
      "normalTexture": {
        "index": 3
      },
      "occlusionTexture": {
        "index": 1
      },
      "pbrMetallicRoughness": {
        "baseColorTexture": {
          "index": 0
        },
        "metallicRoughnessTexture": {
          "index": 1
        }
      }
    }
  ],
  "meshes": [
    {
      "name": "defaultMaterial",
      "primitives": [
        {
          "attributes": {
            "NORMAL": 1,
            "POSITION": 0,
            "TANGENT": 2,
            "TEXCOORD_0": 3
          },
          "indices": 4,
          "material": 0,
          "mode": 4
        }
      ]
    }
  ],
  "nodes": [
    {
      "children": [
        1
      ],
      "matrix": [
        1.0,
        0.0,
        0.0,
        0.0,
        0.0,
        2.220446049250313e-16,
        -1.0,
        0.0,
        0.0,
        1.0,
        2.220446049250313e-16,
        0.0,
        0.0,
        -1.295433094128164e-09,
        -9.918884416038054e-07,
        1.0
      ],
      "name": "Sketchfab_model"
    },
    {
      "children": [
        2
      ],
      "matrix": [
        1.0,
        0.0,
        0.0,
        0.0,
        0.0,
        -4.371139006309477e-08,
        0.999999999999999,
        0.0,
        0.0,
        -0.999999999999999,
        -4.371139006309477e-08,
        0.0,
        0.0,
        0.0,
        0.0,
        1.0
      ],
      "name": "Collada visual scene group"
    },
    {
      "children": [
        3
      ],
      "name": "UtahTeapot_low"
    },
    {
      "mesh": 0,
      "name": "defaultMaterial"
    }
  ],
  "samplers": [
    {
      "magFilter": 9729,
      "minFilter": 9987,
      "wrapS": 10497,
      "wrapT": 10497
    }
  ],
  "scene": 0,
  "scenes": [
    {
      "name": "Sketchfab_Scene",
      "nodes": [
        0
      ]
    }
  ],
  "textures": [
    {
      "sampler": 0,
      "source": 0
    },
    {
      "sampler": 0,
      "source": 1
    },
    {
      "sampler": 0,
      "source": 2
    },
    {
      "sampler": 0,
      "source": 3
    }
  ]
}
